<svg xmlns="http://www.w3.org/2000/svg" width="67" height="67" viewBox="0 0 67 67"><path fill="#F99406" d="M48.918 26.303c0-.832-.27-1.511-.809-2.039-.539-.527-1.489-1.027-2.854-1.499-1.691-.531-2.879-1.162-3.563-1.893-.682-.729-1.021-1.675-1.021-2.835 0-1.221.374-2.211 1.123-2.971.748-.76 1.767-1.192 3.056-1.297V11.5h1.146v2.27c1.317.119 2.338.613 3.062 1.482.724.868 1.084 2.047 1.084 3.537h-1.336c0-1.176-.307-2.109-.916-2.802-.608-.692-1.442-1.039-2.498-1.039-1.063 0-1.894.279-2.488.837-.594.558-.894 1.301-.894 2.229 0 .898.273 1.601.82 2.106.546.505 1.478.98 2.79 1.426 1.313.445 2.27.872 2.863 1.28.596.408 1.041.892 1.336 1.449.297.558.443 1.226.443 2.004 0 1.229-.384 2.219-1.149 2.971-.769.753-1.821 1.182-3.162 1.286v2.134h-1.136v-2.123c-1.504-.097-2.668-.57-3.491-1.42s-1.234-2.013-1.234-3.487h1.349c0 1.168.34 2.083 1.021 2.746.683.662 1.633.993 2.854.993 1.063 0 1.93-.284 2.6-.854.67-.567 1.004-1.309 1.004-2.222zm-22.799 22.76c0-.832-.27-1.512-.809-2.039-.539-.525-1.49-1.025-2.853-1.5-1.692-.529-2.879-1.162-3.56-1.893-.681-.729-1.022-1.674-1.022-2.834 0-1.221.375-2.211 1.123-2.971s1.767-1.193 3.055-1.297v-2.271h1.146v2.271c1.318.119 2.338.613 3.06 1.482.723.865 1.084 2.047 1.084 3.535h-1.336c0-1.176-.305-2.107-.916-2.803-.61-.689-1.443-1.039-2.499-1.039-1.063 0-1.892.277-2.488.838-.595.559-.893 1.303-.893 2.229 0 .897.273 1.601.82 2.104.547.505 1.477.979 2.791 1.427 1.314.444 2.269.873 2.864 1.28.595.408 1.041.892 1.336 1.448.296.558.444 1.226.444 2.005 0 1.229-.384 2.219-1.151 2.971-.768.753-1.821 1.183-3.162 1.285v2.136H22.02v-2.123c-1.505-.099-2.669-.57-3.493-1.42-.824-.851-1.235-2.015-1.235-3.488h1.348c0 1.168.341 2.084 1.022 2.746.681.662 1.632.994 2.853.994 1.063 0 1.93-.285 2.6-.854.669-.565 1.004-1.307 1.004-2.219z"/><path fill="#F99406" d="M45 2.5c11.028 0 20 8.972 20 20s-8.972 20-20 20-20-8.972-20-20 8.972-20 20-20m0-2c-12.15 0-22 9.85-22 22s9.85 22 22 22 22-9.85 22-22-9.85-22-22-22z"/><path fill="#F99406" d="M45 2.5c11.028 0 20 8.972 20 20s-8.972 20-20 20c-.311 0-.619-.01-.927-.023l-2.146-.094.061 2.147.006.175c.002.098.006.196.006.295 0 11.028-8.972 20-20 20S2 56.028 2 45s8.972-20 20-20c.31 0 .617.01.923.023l2.137.096-.048-2.139-.006-.214A7.81 7.81 0 0 1 25 22.5c0-11.028 8.972-20 20-20m0-2c-12.15 0-22 9.85-22 22 0 .176.009.351.013.525A22.678 22.678 0 0 0 22 23C9.85 23 0 32.85 0 45s9.85 22 22 22 22-9.85 22-22c0-.176-.009-.351-.014-.525.336.014.674.025 1.014.025 12.15 0 22-9.85 22-22S57.15.5 45 .5z"/></svg>