<svg xmlns="http://www.w3.org/2000/svg" width="115" height="71"><path fill="#F99406" d="M44.975 41.847l10.144 5.791.729.416.809-.229a10.748 10.748 0 0 1 2.871-.418l.149-.001c5.873 0 10.717 4.778 10.798 10.651.081 5.954-4.698 10.865-10.652 10.947l-.149.001c-5.873 0-10.716-4.778-10.797-10.658l-.001-.159a10.685 10.685 0 0 1 .605-3.585l.243-.7-.271-.69-4.478-11.366m-3.944-4.555l6.56 16.653a12.662 12.662 0 0 0-.715 4.435c.096 7.008 5.809 12.625 12.797 12.625l.177-.001c7.068-.098 12.721-5.906 12.625-12.975-.097-7.01-5.81-12.624-12.798-12.624l-.177.001c-1.177.008-2.31.188-3.39.494l-15.079-8.608zM55.188 0h1.531v12.781h-1.531V0zm47.188 56.656H115v1.563h-12.625l.001-1.563zM0 56.656h12.625v1.563H0v-1.563zm13.723-43.865l8.947 9.058-1.085 1.1-8.947-9.058 1.085-1.1zm87.552 0l-8.946 9.058 1.085 1.1 8.947-9.058-1.086-1.1z"/></svg>